# xmcd
#
# Track frame offsets:
#	150
#	10682
#	25252
#	43707
#	54567
#	70542
#	83797
#	96367
#	112052
#	122020
#	133677
#	149550
#	163552
#	178570
#	189980
#	199477
#	209955
#	222022
#	239177
#	251610
#	266145
#	280470
#	292380
#	303820
#	319862
#	332422
#	346100
#
# Disc length: 4775 seconds
#
# Revision: 1
# Processed by: cddbd v1.5.1PL0 Copyright (c) Steve Scherf et al.
# Submitted via: CDex 1.50Beta5
#
DISCID=ab12a51b
DTITLE=さまざまなアーティスト - SOUL SURVIVAL
DYEAR=1900
DGENRE=Soul
TTITLE0=jump back
TTITLE1=see saw
TTITLE2=you can't sit down
TTITLE3=how sweet it is
TTITLE4=soul soup
TTITLE5=sunshine superman
TTITLE6=last night
TTITLE7=when something is wrong with my baby
TTITLE8=i feel good
TTITLE9=philly dog
TTITLE10=soul survival
TTITLE11=night train
TTITLE12=sock it to 'em j.b.
TTITLE13=summertime
TTITLE14=girls are out to get you
TTITLE15=love is after me
TTITLE16=sweet thing
TTITLE17=try a little tenderness
TTITLE18=what is soul?
TTITLE19=knock on wood
TTITLE20=who's afraid of virginia woolf
TTITLE21=you do'nt know like i know
TTITLE22=shack
TTITLE23=please stay
TTITLE24=can't stop
TTITLE25=invitation
TTITLE26=hold on i'm comin'
EXTD=
EXTT0=
EXTT1=
EXTT2=
EXTT3=
EXTT4=
EXTT5=
EXTT6=
EXTT7=
EXTT8=
EXTT9=
EXTT10=
EXTT11=
EXTT12=
EXTT13=
EXTT14=
EXTT15=
EXTT16=
EXTT17=
EXTT18=
EXTT19=
EXTT20=
EXTT21=
EXTT22=
EXTT23=
EXTT24=
EXTT25=
EXTT26=
PLAYORDER=
